<?xml version="1.0" encoding="UTF-8" standalone="no"?>
<svg
   id="Layer_1"
   data-name="Layer 1"
   viewBox="0 0 16 16"
   version="1.1"
   sodipodi:docname="Universe logo word-01.svg"
   inkscape:version="1.3.2 (091e20e, 2023-11-25, custom)"
   width="16"
   height="16"
   xmlns:inkscape="http://www.inkscape.org/namespaces/inkscape"
   xmlns:sodipodi="http://sodipodi.sourceforge.net/DTD/sodipodi-0.dtd"
   xmlns="http://www.w3.org/2000/svg"
   xmlns:svg="http://www.w3.org/2000/svg">
  <sodipodi:namedview
     id="namedview13"
     pagecolor="#ffffff"
     bordercolor="#000000"
     borderopacity="0.25"
     inkscape:showpageshadow="2"
     inkscape:pageopacity="0.0"
     inkscape:pagecheckerboard="0"
     inkscape:deskcolor="#d1d1d1"
     inkscape:zoom="15.509209"
     inkscape:cx="-0.19343347"
     inkscape:cy="18.408418"
     inkscape:window-width="1920"
     inkscape:window-height="1009"
     inkscape:window-x="-8"
     inkscape:window-y="-8"
     inkscape:window-maximized="1"
     inkscape:current-layer="Layer_1" />
  <defs
     id="defs4">
    <style
       id="style1">
      .cls-1 {
        fill: url(#linear-gradient);
      }

      .cls-1, .cls-2, .cls-3, .cls-4, .cls-5, .cls-6, .cls-7, .cls-8, .cls-9, .cls-10, .cls-11 {
        stroke-width: 0px;
      }

      .cls-2 {
        fill: #225675;
      }

      .cls-3 {
        fill: #940068;
      }

      .cls-4 {
        fill: #ffc100;
      }

      .cls-5 {
        fill: #a3842c;
      }

      .cls-6 {
        fill: #993441;
      }

      .cls-7 {
        fill: #200073;
      }

      .cls-8 {
        fill: #fff;
      }

      .cls-9 {
        fill: #005507;
      }

      .cls-10 {
        fill: #007c9f;
      }

      .cls-11 {
        fill: #e78f00;
      }
    </style>
  </defs>
  <g
     id="g15"
     transform="matrix(0.08386017,0,0,0.08386017,-44.392834,-37.011776)">
    <g
       id="g14">
      <g
         id="g13">
        <path
           class="cls-5"
           d="m 660.37,584.05 c -0.49,-0.23 -1.32,-0.26 -1.26,-0.96 0.03,-0.35 0.66,-0.7 1.08,-0.97 1.76,-1.16 3.53,-2.3 5.32,-3.42 1.18,-0.74 1.41,-1.51 0.33,-2.59 -5.26,-5.22 -10.5,-10.47 -15.73,-15.72 -0.68,-0.68 -1.39,-0.99 -2.34,-0.59 -5.4,2.26 -11.04,3.62 -16.85,4.23 -1.48,0.16 -1.72,1.04 -1.72,2.25 0.01,3.78 0,7.56 0,11.34 0,3.85 0.03,7.71 -0.01,11.56 -0.02,1.62 0.68,2.28 2.26,2.06 2.23,-0.31 4.46,-0.63 6.69,-0.93 0.77,-0.1 1.68,-0.69 2.26,0 0.52,0.62 -0.24,1.35 -0.47,2 -2.2,6.13 -0.5,12.39 4.6,16.74 4.51,3.85 11.5,4.51 16.74,1.48 5.17,-2.99 7.85,-7.59 7.6,-13.52 -0.25,-5.86 -3,-10.37 -8.48,-12.97 z"
           id="path6" />
        <path
           class="cls-4"
           d="m 619.77,563.92 c -5.65,-0.65 -11.16,-1.91 -16.4,-4.18 -0.94,-0.41 -1.67,-0.16 -2.35,0.53 -5.28,5.3 -10.55,10.6 -15.86,15.87 -1.01,1 -0.83,1.71 0.26,2.42 1.95,1.26 3.89,2.53 5.84,3.8 0.53,0.35 1.45,0.41 1.51,1.1 0.06,0.77 -0.89,0.82 -1.42,1.12 -7.08,4.05 -9.42,13.8 -4.99,20.95 4.26,6.87 14.02,9.09 20.7,4.7 6.13,-4.03 8.5,-11.1 5.96,-18.14 -0.56,-1.55 -0.18,-1.79 1.27,-1.54 1.57,0.28 3.16,0.48 4.75,0.65 2.5,0.26 2.82,-0.03 2.83,-2.48 0.02,-3.63 0,-7.26 0,-10.89 0,-3.78 -0.04,-7.55 0.02,-11.33 0.03,-1.55 -0.38,-2.38 -2.11,-2.58 z"
           id="path7" />
        <path
           class="cls-11"
           d="m 593.06,557.85 c 2.17,-2.23 2.13,-2.37 -0.48,-4.18 -6.61,-4.58 -11.96,-10.32 -16.06,-17.23 -0.91,-1.53 -1.91,-2.32 -3.85,-2.06 -1.93,0.26 -3.91,0.06 -5.88,0.06 v 0.02 c -2.25,0 -4.51,0.07 -6.75,-0.02 -1.77,-0.07 -2.41,0.51 -1.9,2.3 0.76,2.65 1.36,5.35 2.12,8 0.35,1.21 0.36,1.9 -1.19,1.43 -1.63,-0.5 -3.31,-0.38 -4.98,-0.35 -7.04,0.11 -12.85,5.55 -13.85,12.94 -0.93,6.85 3.53,13.83 9.85,15.94 8.24,2.76 17.03,-1.93 19.22,-9.6 0.13,-0.46 0.09,-1.15 0.71,-1.23 0.58,-0.08 0.76,0.58 1.08,0.95 1.8,2.08 3.6,4.18 5.41,6.25 1.08,1.23 2.13,1.23 3.31,0.03 4.38,-4.43 8.86,-8.77 13.21,-13.23 z"
           id="path8" />
        <path
           class="cls-2"
           d="m 692.56,545.91 c -1.93,0.3 -2.08,-0.1 -1.54,-1.8 0.81,-2.56 1.37,-5.19 2.07,-7.79 0.38,-1.4 0.07,-2.02 -1.54,-1.93 -2.32,0.12 -4.65,0.03 -6.97,0.03 -2.32,0 -4.65,0.05 -6.97,-0.02 -1.05,-0.03 -1.76,0.23 -2.32,1.19 -4.53,7.68 -10.5,14.04 -17.91,19.02 -1.17,0.79 -1.18,1.48 -0.25,2.41 4.83,4.82 9.66,9.65 14.48,14.49 0.84,0.85 1.6,0.88 2.41,0 1.38,-1.49 2.85,-2.91 4.15,-4.46 2.31,-2.76 2.27,-2.8 3.81,0.26 3.31,6.54 11.08,9.77 17.91,7.44 7.35,-2.5 11.49,-9.45 10.09,-16.91 -1.55,-8.22 -8.84,-13.29 -17.41,-11.94 z"
           id="path9" />
        <path
           class="cls-6"
           d="m 557.25,510.47 c 0.5,0.98 0.22,1.69 0.11,2.39 -0.62,3.89 -0.7,7.81 -0.66,11.74 0.02,1.54 0.56,2.26 2.19,2.21 2.54,-0.07 5.09,-0.01 7.63,-0.01 q 5.01,0 3.73,-4.79 c -3.3,-12.42 -2.67,-24.61 2.17,-36.53 0.68,-1.67 0.4,-2.89 -1.07,-3.7 -1.59,-0.88 -1.96,0.78 -2.55,1.61 -2.97,4.14 -5.14,8.73 -7.36,13.67 -4.24,-10.39 -12.06,-14.68 -20.27,-11.4 -8.1,3.24 -11.81,12.03 -8.42,20.15 1.49,3.57 4.15,6.13 7.7,7.64 6.18,2.63 11.74,1.08 16.8,-2.98 z"
           id="path10" />
        <path
           class="cls-3"
           d="m 711.71,489.11 c -2.86,-1.95 -6.07,-2.83 -9.5,-2.51 -5.97,0.56 -10.08,3.94 -12.81,9.15 -0.85,-0.63 -0.95,-1.4 -1.24,-2.05 -1.75,-3.93 -3.98,-7.57 -6.37,-11.14 -1.02,-1.52 -1.84,-1.22 -2.9,-0.11 -0.84,0.87 -0.52,1.66 -0.15,2.58 2.6,6.46 3.98,13.15 4.15,20.14 0.16,6.53 -0.67,12.88 -2.59,19.12 -0.71,2.29 -0.56,2.46 1.89,2.48 2.76,0.02 5.52,0 8.28,0 3.93,0 4.16,-0.15 4.08,-4.19 -0.06,-2.95 -0.36,-5.9 -0.58,-9.28 4.09,2.73 8.32,3.68 12.83,2.67 4.7,-1.05 8.05,-3.9 10.14,-8.2 3.15,-6.47 0.89,-14.52 -5.23,-18.68 z"
           id="path11" />
      </g>
    </g>
  </g>
</svg>
