<svg width="50" height="50" viewBox="0 0 50 50" fill="none" xmlns="http://www.w3.org/2000/svg">
<path d="M27.4843 0.833374C30.2031 0.840624 31.583 0.855124 32.7744 0.888957L33.2433 0.905874C33.7846 0.925207 34.3187 0.949374 34.9639 0.978374C37.5353 1.09921 39.2898 1.50521 40.8292 2.10212C42.4242 2.71596 43.7678 3.54729 45.1115 4.88854C46.3404 6.09662 47.2912 7.55796 47.8979 9.17087C48.4948 10.7103 48.9008 12.4648 49.0217 15.0385C49.0507 15.6814 49.0748 16.2155 49.0942 16.7592L49.1087 17.228C49.1449 18.417 49.1594 19.797 49.1643 22.5157L49.1667 24.3185V27.4844C49.1726 29.2471 49.1541 31.0098 49.1111 32.772L49.0966 33.2409C49.0773 33.7846 49.0531 34.3187 49.0241 34.9615C48.9033 37.5353 48.4924 39.2874 47.8979 40.8292C47.293 42.443 46.3419 43.9047 45.1115 45.1115C43.9031 46.34 42.4418 47.2908 40.8292 47.898C39.2898 48.4949 37.5353 48.9009 34.9639 49.0217C34.3905 49.0487 33.8169 49.0729 33.2433 49.0942L32.7744 49.1087C31.583 49.1425 30.2031 49.1595 27.4843 49.1643L25.6815 49.1667H22.5181C20.7545 49.1728 18.991 49.1543 17.228 49.1111L16.7592 49.0966C16.1855 49.0749 15.6119 49.0499 15.0385 49.0217C12.4672 48.9009 10.7127 48.4949 9.17083 47.898C7.55812 47.2923 6.09736 46.3413 4.89092 45.1115C3.66094 43.9039 2.70921 42.4425 2.10208 40.8292C1.50517 39.2898 1.09917 37.5353 0.978334 34.9615C0.951409 34.3881 0.927243 33.8145 0.905834 33.2409L0.893751 32.772C0.849217 31.0098 0.829076 29.2471 0.833334 27.4844V22.5157C0.826589 20.753 0.844313 18.9903 0.886501 17.228L0.903418 16.7592C0.922751 16.2155 0.946917 15.6814 0.975917 15.0385C1.09675 12.4648 1.50275 10.7127 2.09967 9.17087C2.70653 7.55631 3.66016 6.09451 4.89333 4.88854C6.09947 3.6596 7.55927 2.70868 9.17083 2.10212C10.7127 1.50521 12.4648 1.09921 15.0385 0.978374C15.6813 0.949374 16.2178 0.925207 16.7592 0.905874L17.228 0.891374C18.9902 0.848436 20.7529 0.829907 22.5157 0.835791L27.4843 0.833374ZM25 12.9167C21.7953 12.9167 18.7219 14.1898 16.4558 16.4558C14.1897 18.7219 12.9167 21.7953 12.9167 25C12.9167 28.2047 14.1897 31.2782 16.4558 33.5443C18.7219 35.8103 21.7953 37.0834 25 37.0834C28.2047 37.0834 31.2781 35.8103 33.5442 33.5443C35.8103 31.2782 37.0833 28.2047 37.0833 25C37.0833 21.7953 35.8103 18.7219 33.5442 16.4558C31.2781 14.1898 28.2047 12.9167 25 12.9167ZM25 17.75C25.9521 17.7499 26.8949 17.9373 27.7745 18.3015C28.6542 18.6657 29.4535 19.1996 30.1269 19.8727C30.8002 20.5458 31.3344 21.3449 31.6989 22.2245C32.0634 23.104 32.2511 24.0468 32.2512 24.9988C32.2514 25.9509 32.064 26.8937 31.6998 27.7734C31.3356 28.6531 30.8017 29.4524 30.1286 30.1257C29.4555 30.799 28.6563 31.3332 27.7768 31.6977C26.8972 32.0622 25.9545 32.2499 25.0024 32.25C23.0796 32.25 21.2355 31.4862 19.8759 30.1266C18.5163 28.7669 17.7524 26.9229 17.7524 25C17.7524 23.0772 18.5163 21.2332 19.8759 19.8735C21.2355 18.5139 23.0796 17.75 25.0024 17.75M37.6899 9.29171C36.8887 9.29171 36.1204 9.60997 35.5539 10.1765C34.9874 10.743 34.6691 11.5114 34.6691 12.3125C34.6691 13.1137 34.9874 13.8821 35.5539 14.4486C36.1204 15.0151 36.8887 15.3334 37.6899 15.3334C38.4911 15.3334 39.2595 15.0151 39.826 14.4486C40.3925 13.8821 40.7108 13.1137 40.7108 12.3125C40.7108 11.5114 40.3925 10.743 39.826 10.1765C39.2595 9.60997 38.4911 9.29171 37.6899 9.29171Z" fill="white"/>
</svg>
