<svg width="56" height="44" viewBox="0 0 56 44" fill="none" xmlns="http://www.w3.org/2000/svg">
<path d="M6 44C4.4875 44 3.19317 43.4619 2.117 42.3858C1.04083 41.3096 0.501833 40.0143 0.5 38.5V5.5C0.5 3.9875 1.039 2.69317 2.117 1.617C3.195 0.540833 4.48933 0.00183333 6 0H50C51.5125 0 52.8078 0.539 53.8858 1.617C54.9638 2.695 55.5018 3.98933 55.5 5.5V38.5C55.5 40.0125 54.9619 41.3078 53.8858 42.3858C52.8096 43.4638 51.5143 44.0018 50 44H6ZM28 24.75L50 11V5.5L28 19.25L6 5.5V11L28 24.75Z" fill="white"/>
</svg>
